# xmcd
#
# Track frame offsets:
#	150
#	11463
#	27037
#	42235
#	54471
#	67788
#	86260
#	101605
#	116207
#	126764
#	133138
#	149705
#
# Disc length: 2989 seconds
#
# Revision: 1
# Processed by: cddbd v1.5.2PL0 Copyright (c) Steve Scherf et al.
# Submitted via: audiograbber 1.83.01
#
DISCID=a00bab0c
DTITLE=Various Artist - Charlie Daniels and Friends - Joy To The World
DYEAR=2009
DGENRE=Christmas
TTITLE0=The Grascals - Christmas time's a comin'
TTITLE1=Aaron Tippin - Christmas time down South
TTITLE2=Jewel - Blue Christmas
TTITLE3=Charlie Daniels - Mississippi Christmas Eve
TTITLE4=Charlie Daniels - Hallelujah
TTITLE5=Dan Tyminski - The Christmas Song
TTITLE6=Kathy Mattea - O comme all ye faithful
TTITLE7=Evelyn Cox - Got rest ye merry gentlemen
TTITLE8=Charlie Daniels - Joy to the world
TTITLE9=Charlie Daniels - The Christmas Story from the Book of Luke
TTITLE10=Suzanne Cox - Silent night
TTITLE11=Charlie Daniels - A Carolina Christmas Carol
EXTD=
EXTT0=
EXTT1=
EXTT2=
EXTT3=
EXTT4=
EXTT5=
EXTT6=
EXTT7=
EXTT8=
EXTT9=
EXTT10=
EXTT11=
PLAYORDER=
